# Blender v2.78 (sub 0) OBJ File: 'cone.blend'
# www.blender.org
mtllib cone.mtl
o Cone
v 0.000000 0.186015 -1.000000
v 0.195090 0.186015 -0.980785
v 0.382683 0.186015 -0.923880
v 0.555570 0.186015 -0.831470
v 0.707107 0.186015 -0.707107
v 0.831470 0.186015 -0.555570
v 0.923880 0.186015 -0.382683
v 0.980785 0.186015 -0.195090
v 1.000000 0.186015 -0.000000
v 0.000000 2.186016 0.000000
v 0.980785 0.186015 0.195090
v 0.923880 0.186015 0.382683
v 0.831470 0.186015 0.555570
v 0.707107 0.186015 0.707107
v 0.555570 0.186015 0.831470
v 0.382683 0.186015 0.923880
v 0.195090 0.186015 0.980785
v -0.000000 0.186015 1.000000
v -0.195091 0.186015 0.980785
v -0.382684 0.186015 0.923879
v -0.555571 0.186015 0.831469
v -0.707107 0.186015 0.707106
v -0.831470 0.186015 0.555570
v -0.923880 0.186015 0.382683
v -0.980785 0.186015 0.195089
v -1.000000 0.186015 -0.000001
v -0.980785 0.186015 -0.195091
v -0.923879 0.186015 -0.382684
v -0.831469 0.186015 -0.555571
v -0.707106 0.186015 -0.707108
v -0.555569 0.186015 -0.831470
v -0.382682 0.186015 -0.923880
v -0.195089 0.186015 -0.980786
v 0.000000 0.183688 -1.000000
v 0.195090 0.183688 -0.980785
v 0.382683 0.183688 -0.923880
v 0.555570 0.183688 -0.831470
v 0.707107 0.183688 -0.707107
v 0.831470 0.183688 -0.555570
v 0.923880 0.183688 -0.382683
v 0.980785 0.183688 -0.195090
v 1.000000 0.183688 -0.000000
v 0.980785 0.183688 0.195090
v 0.923880 0.183688 0.382683
v 0.831470 0.183688 0.555570
v 0.707107 0.183688 0.707107
v 0.555570 0.183688 0.831470
v 0.382683 0.183688 0.923880
v 0.195090 0.183688 0.980785
v -0.000000 0.183688 1.000000
v -0.195091 0.183688 0.980785
v -0.382684 0.183688 0.923879
v -0.555571 0.183688 0.831469
v -0.707107 0.183688 0.707106
v -0.831470 0.183688 0.555570
v -0.923880 0.183688 0.382683
v -0.980785 0.183688 0.195089
v -1.000000 0.183688 -0.000001
v -0.980785 0.183688 -0.195091
v -0.923879 0.183688 -0.382684
v -0.831469 0.183688 -0.555571
v -0.707106 0.183688 -0.707108
v -0.555569 0.183688 -0.831470
v -0.382682 0.183688 -0.923880
v -0.195089 0.183688 -0.980786
vt -0.4527 0.7332
vt 0.5039 1.0028
vt -0.4752 0.8172
vt 1.4901 0.8474
vt 1.4700 0.7621
vt 1.4445 0.6787
vt 1.4124 0.5978
vt 1.3734 0.5201
vt 1.3279 0.4460
vt 1.2761 0.3763
vt 1.2184 0.3113
vt 1.1552 0.2516
vt 1.0871 0.1976
vt 1.0146 0.1498
vt 0.9381 0.1085
vt 0.8584 0.0741
vt 0.7759 0.0468
vt 0.6914 0.0267
vt 0.6054 0.0141
vt 0.5187 0.0091
vt 0.4319 0.0117
vt 0.3457 0.0218
vt 0.2606 0.0394
vt 0.1775 0.0644
vt 0.0968 0.0965
vt 0.0192 0.1356
vt -0.0546 0.1813
vt -0.1241 0.2332
vt -0.1889 0.2910
vt -0.2484 0.3543
vt -0.3021 0.4225
vt -0.3496 0.4951
vt -0.3907 0.5715
vt -0.4250 0.6512
vt 0.0185 0.1343
vt 0.0962 0.0951
vt 0.4494 -0.0014
vt 0.5485 -0.0014
vt 0.6457 0.0179
vt 0.7372 0.0558
vt 0.8196 0.1109
vt 0.8897 0.1809
vt 0.9447 0.2633
vt 0.9826 0.3548
vt 1.0020 0.4520
vt 1.0020 0.5511
vt 0.9826 0.6483
vt 0.9447 0.7398
vt 0.8897 0.8222
vt 0.8196 0.8922
vt 0.7372 0.9473
vt 0.6457 0.9852
vt 0.5485 1.0045
vt 0.4494 1.0045
vt 0.3523 0.9852
vt 0.2607 0.9473
vt 0.1784 0.8922
vt 0.1083 0.8222
vt 0.0533 0.7398
vt 0.0153 0.6483
vt -0.0040 0.5511
vt -0.0040 0.4520
vt 0.0153 0.3548
vt 0.0533 0.2633
vt 0.1083 0.1809
vt 0.1784 0.1109
vt 0.2607 0.0558
vt 0.3523 0.0179
vt -0.3921 0.5709
vt -0.3509 0.4943
vt 1.0880 0.1964
vt 1.1562 0.2504
vt 1.4138 0.5972
vt 1.4459 0.6782
vt 0.5187 0.0076
vt 0.6056 0.0126
vt -0.0555 0.1800
vt -0.4264 0.6506
vt 1.0154 0.1485
vt 1.3748 0.5193
vt 0.4318 0.0101
vt -0.4542 0.7328
vt -0.1251 0.2320
vt 0.9388 0.1072
vt 1.3292 0.4452
vt 0.3454 0.0203
vt -0.1900 0.2899
vt 0.8589 0.0727
vt 1.2773 0.3753
vt 0.2602 0.0379
vt -0.4767 0.8168
vt -0.2495 0.3533
vt 0.7763 0.0453
vt 1.2195 0.3102
vt 0.1769 0.0629
vt -0.3033 0.4216
vt 1.4715 0.7616
vt 1.4916 0.8470
vt 0.6917 0.0252
vn 0.0000 0.2266 -0.9740
vn 0.0000 1.0000 0.0000
vn 0.1900 0.2266 -0.9553
vn 0.3727 0.2266 -0.8998
vn 0.5411 0.2266 -0.8098
vn 0.6887 0.2266 -0.6887
vn 0.8098 0.2266 -0.5411
vn 0.8998 0.2266 -0.3727
vn 0.9553 0.2266 -0.1900
vn 0.9740 0.2266 0.0000
vn 0.9553 0.2266 0.1900
vn 0.8998 0.2266 0.3727
vn 0.8098 0.2266 0.5411
vn 0.6887 0.2266 0.6887
vn 0.5411 0.2266 0.8098
vn 0.3727 0.2266 0.8998
vn 0.1900 0.2266 0.9553
vn 0.0000 0.2266 0.9740
vn -0.1900 0.2266 0.9553
vn -0.3727 0.2266 0.8998
vn -0.5411 0.2266 0.8098
vn -0.6887 0.2266 0.6887
vn -0.8098 0.2266 0.5411
vn -0.8998 0.2266 0.3727
vn -0.9553 0.2266 0.1900
vn -0.9740 0.2266 0.0000
vn -0.9553 0.2266 -0.1900
vn -0.8998 0.2266 -0.3727
vn -0.8098 0.2266 -0.5411
vn -0.6887 0.2266 -0.6887
vn -0.5411 0.2266 -0.8098
vn -0.3727 0.2266 -0.8998
vn -0.1900 0.2266 -0.9553
vn -0.7139 -0.6857 0.1420
vn -0.6725 -0.6857 0.2785
vn 0.0000 -0.6857 -0.7279
vn 0.1420 -0.6857 -0.7139
vn 0.2785 -0.6857 -0.6725
vn 0.4044 -0.6857 -0.6052
vn 0.5147 -0.6857 -0.5147
vn 0.6052 -0.6857 -0.4044
vn 0.6725 -0.6857 -0.2785
vn 0.7139 -0.6857 -0.1420
vn 0.7279 -0.6857 0.0000
vn 0.7139 -0.6857 0.1420
vn 0.6725 -0.6857 0.2785
vn 0.6052 -0.6857 0.4044
vn 0.5147 -0.6857 0.5147
vn 0.4044 -0.6857 0.6052
vn 0.2785 -0.6857 0.6725
vn 0.1420 -0.6857 0.7139
vn 0.0000 -0.6857 0.7279
vn -0.1420 -0.6857 0.7139
vn -0.2785 -0.6857 0.6725
vn -0.4044 -0.6857 0.6052
vn -0.5147 -0.6857 0.5147
vn -0.6052 -0.6857 0.4044
vn -0.7279 -0.6857 0.0000
vn -0.7139 -0.6857 -0.1420
vn -0.6725 -0.6857 -0.2785
vn -0.6052 -0.6857 -0.4044
vn -0.5147 -0.6857 -0.5147
vn -0.4044 -0.6857 -0.6052
vn -0.2785 -0.6857 -0.6725
vn -0.1420 -0.6857 -0.7139
usemtl rustediron2
s 1
f 1/1/1 10/2/2 2/3/3
f 2/4/3 10/2/2 3/5/4
f 3/5/4 10/2/2 4/6/5
f 4/6/5 10/2/2 5/7/6
f 5/7/6 10/2/2 6/8/7
f 6/8/7 10/2/2 7/9/8
f 7/9/8 10/2/2 8/10/9
f 8/10/9 10/2/2 9/11/10
f 9/11/10 10/2/2 11/12/11
f 11/12/11 10/2/2 12/13/12
f 12/13/12 10/2/2 13/14/13
f 13/14/13 10/2/2 14/15/14
f 14/15/14 10/2/2 15/16/15
f 15/16/15 10/2/2 16/17/16
f 16/17/16 10/2/2 17/18/17
f 17/18/17 10/2/2 18/19/18
f 18/19/18 10/2/2 19/20/19
f 19/20/19 10/2/2 20/21/20
f 20/21/20 10/2/2 21/22/21
f 21/22/21 10/2/2 22/23/22
f 22/23/22 10/2/2 23/24/23
f 23/24/23 10/2/2 24/25/24
f 24/25/24 10/2/2 25/26/25
f 25/26/25 10/2/2 26/27/26
f 26/27/26 10/2/2 27/28/27
f 27/28/27 10/2/2 28/29/28
f 28/29/28 10/2/2 29/30/29
f 29/30/29 10/2/2 30/31/30
f 30/31/30 10/2/2 31/32/31
f 31/32/31 10/2/2 32/33/32
f 32/33/32 10/2/2 33/34/33
f 33/34/33 10/2/2 1/1/1
f 24/25/24 25/26/25 57/35/34 56/36/35
f 34/37/36 35/38/37 36/39/38 37/40/39 38/41/40 39/42/41 40/43/42 41/44/43 42/45/44 43/46/45 44/47/46 45/48/47 46/49/48 47/50/49 48/51/50 49/52/51 50/53/52 51/54/53 52/55/54 53/56/55 54/57/56 55/58/57 56/59/35 57/60/34 58/61/58 59/62/59 60/63/60 61/64/61 62/65/62 63/66/63 64/67/64 65/68/65
f 31/32/31 32/33/32 64/69/64 63/70/63
f 11/12/11 12/13/12 44/71/46 43/72/45
f 4/6/5 5/7/6 38/73/40 37/74/39
f 18/19/18 19/20/19 51/75/53 50/76/52
f 25/26/25 26/27/26 58/77/58 57/35/34
f 32/33/32 33/34/33 65/78/65 64/69/64
f 12/13/12 13/14/13 45/79/47 44/71/46
f 5/7/6 6/8/7 39/80/41 38/73/40
f 19/20/19 20/21/20 52/81/54 51/75/53
f 33/34/33 1/1/1 34/82/36 65/78/65
f 26/27/26 27/28/27 59/83/59 58/77/58
f 13/14/13 14/15/14 46/84/48 45/79/47
f 6/8/7 7/9/8 40/85/42 39/80/41
f 20/21/20 21/22/21 53/86/55 52/81/54
f 27/28/27 28/29/28 60/87/60 59/83/59
f 14/15/14 15/16/15 47/88/49 46/84/48
f 7/9/8 8/10/9 41/89/43 40/85/42
f 21/22/21 22/23/22 54/90/56 53/86/55
f 1/1/1 2/3/3 35/91/37 34/82/36
f 28/29/28 29/30/29 61/92/61 60/87/60
f 15/16/15 16/17/16 48/93/50 47/88/49
f 8/10/9 9/11/10 42/94/44 41/89/43
f 22/23/22 23/24/23 55/95/57 54/90/56
f 29/30/29 30/31/30 62/96/62 61/92/61
f 2/4/3 3/5/4 36/97/38 35/98/37
f 16/17/16 17/18/17 49/99/51 48/93/50
f 23/24/23 24/25/24 56/36/35 55/95/57
f 30/31/30 31/32/31 63/70/63 62/96/62
f 9/11/10 11/12/11 43/72/45 42/94/44
f 3/5/4 4/6/5 37/74/39 36/97/38
f 17/18/17 18/19/18 50/76/52 49/99/51
