# Blender v2.78 (sub 0) OBJ File: 'world.blend'
# www.blender.org
mtllib world.mtl
o Cube.002
v 25.539845 25.576143 -25.933138
v 25.539845 25.576143 25.179220
v -25.572515 25.576143 25.179214
v -25.572502 25.576143 -25.933147
v 25.539854 25.999907 -25.933125
v 25.539829 25.999907 25.179234
v -25.572523 25.999907 25.179209
v -25.572510 25.999907 -25.933138
vt 0.1865 0.1865
vt 0.8135 0.1865
vt 0.8135 0.8135
vt 0.1865 0.8135
vt 0.1865 0.1865
vt 0.8135 0.1865
vt 0.8135 0.8135
vt 0.1865 0.8135
vt 0.8135 0.1865
vt 0.8135 0.8135
vt 0.1865 0.8135
vt 0.1865 0.1865
vt 0.8135 0.1865
vt 0.1865 0.8135
vt 0.1865 0.1865
vt 0.8135 0.1865
vt 0.8135 0.8135
vt 0.8135 0.1865
vt 0.8135 0.8135
vt 0.1865 0.8135
vn 0.0000 -1.0000 -0.0000
vn 0.0000 1.0000 0.0000
vn 1.0000 0.0000 0.0000
vn -0.0000 -0.0000 1.0000
vn -1.0000 -0.0000 -0.0000
vn 0.0000 0.0000 -1.0000
usemtl copper-rock1
s off
f 1/1/1 2/2/1 3/3/1 4/4/1
f 5/5/2 8/6/2 7/7/2 6/8/2
f 1/1/3 5/9/3 6/10/3 2/11/3
f 2/12/4 6/13/4 7/7/4 3/14/4
f 3/15/5 7/16/5 8/17/5 4/4/5
f 5/5/6 1/18/6 4/19/6 8/20/6
o Cube.001
v -25.546219 -2.911078 -25.993767
v -25.546219 25.818262 -25.993767
v -25.546219 -2.911078 -26.067280
v -25.546219 25.818262 -26.067280
v 25.620892 -2.911078 -25.993767
v 25.620892 25.818262 -25.993767
v 25.620892 -2.911078 -26.067280
v 25.620892 25.818262 -26.067280
v -25.539412 -2.779959 25.179386
v -25.539412 25.949379 25.179386
v -25.539412 -2.779959 25.105873
v -25.539412 25.949379 25.105873
v 25.627699 -2.779959 25.179386
v 25.627699 25.949379 25.179386
v 25.627699 -2.779959 25.105873
v 25.627699 25.949379 25.105873
v -25.047720 -2.726388 25.471476
v -25.047720 26.002949 25.471476
v -25.121233 -2.726388 25.471476
v -25.121233 26.002949 25.471476
v -25.047720 -2.726388 -26.437893
v -25.047720 26.002949 -26.437893
v -25.121233 -2.726388 -26.437893
v -25.121233 26.002949 -26.437893
v 25.452614 -2.726388 25.471476
v 25.452614 26.002949 25.471476
v 25.379103 -2.726388 25.471476
v 25.379103 26.002949 25.471476
v 25.452614 -2.726388 -26.437893
v 25.452614 26.002949 -26.437893
v 25.379103 -2.726388 -26.437893
v 25.379103 26.002949 -26.437893
vt 0.0000 0.0000
vt 1.0000 0.0000
vt 1.0000 1.0000
vt 0.0000 1.0000
vt 0.0000 0.0000
vt 1.0000 0.0000
vt 1.0000 1.0000
vt 0.0000 1.0000
vt 0.0000 0.0000
vt 1.0000 0.0000
vt 1.0000 1.0000
vt 0.0000 1.0000
vt 0.0000 0.0000
vt 1.0000 0.0000
vt 1.0000 1.0000
vt 0.0000 1.0000
vt 1.0000 0.0000
vt 1.0000 1.0000
vt 0.0000 0.0000
vt 0.0000 1.0000
vt 0.0000 0.0000
vt 1.0000 0.0000
vt 1.0000 1.0000
vt 0.0000 1.0000
vt 0.0000 0.0000
vt 1.0000 0.0000
vt 1.0000 1.0000
vt 0.0000 1.0000
vt 0.0000 0.0000
vt 1.0000 0.0000
vt 1.0000 1.0000
vt 0.0000 1.0000
vt 0.0000 0.0000
vt 1.0000 0.0000
vt 1.0000 1.0000
vt 0.0000 1.0000
vt 1.0000 0.0000
vt 1.0000 1.0000
vt 0.0000 0.0000
vt 0.0000 1.0000
vt 0.0000 0.0000
vt 1.0000 0.0000
vt 1.0000 1.0000
vt 0.0000 1.0000
vt 0.0000 0.0000
vt 1.0000 0.0000
vt 1.0000 1.0000
vt 0.0000 1.0000
vt 0.0000 0.0000
vt 1.0000 0.0000
vt 1.0000 1.0000
vt 0.0000 1.0000
vt 0.0000 0.0000
vt 1.0000 0.0000
vt 1.0000 1.0000
vt 0.0000 1.0000
vt 1.0000 0.0000
vt 1.0000 1.0000
vt 0.0000 0.0000
vt 0.0000 1.0000
vt 0.0000 0.0000
vt 1.0000 0.0000
vt 1.0000 1.0000
vt 0.0000 1.0000
vt 0.0000 0.0000
vt 1.0000 0.0000
vt 1.0000 1.0000
vt 0.0000 1.0000
vt 0.0000 0.0000
vt 1.0000 0.0000
vt 1.0000 1.0000
vt 0.0000 1.0000
vt 0.0000 0.0000
vt 1.0000 0.0000
vt 1.0000 1.0000
vt 0.0000 1.0000
vt 1.0000 0.0000
vt 1.0000 1.0000
vt 0.0000 0.0000
vt 0.0000 1.0000
vn -1.0000 0.0000 0.0000
vn 0.0000 0.0000 -1.0000
vn 1.0000 0.0000 0.0000
vn 0.0000 0.0000 1.0000
vn 0.0000 -1.0000 0.0000
vn 0.0000 1.0000 0.0000
usemtl greasy-pan-2
s off
f 9/21/7 10/22/7 12/23/7 11/24/7
f 11/25/8 12/26/8 16/27/8 15/28/8
f 15/29/9 16/30/9 14/31/9 13/32/9
f 13/33/10 14/34/10 10/35/10 9/36/10
f 11/25/11 15/37/11 13/38/11 9/36/11
f 16/39/12 12/26/12 10/35/12 14/40/12
f 17/41/7 18/42/7 20/43/7 19/44/7
f 19/45/8 20/46/8 24/47/8 23/48/8
f 23/49/9 24/50/9 22/51/9 21/52/9
f 21/53/10 22/54/10 18/55/10 17/56/10
f 19/45/11 23/57/11 21/58/11 17/56/11
f 24/59/12 20/46/12 18/55/12 22/60/12
f 25/61/10 26/62/10 28/63/10 27/64/10
f 27/65/7 28/66/7 32/67/7 31/68/7
f 31/69/8 32/70/8 30/71/8 29/72/8
f 29/73/9 30/74/9 26/75/9 25/76/9
f 27/65/11 31/77/11 29/78/11 25/76/11
f 32/79/12 28/66/12 26/75/12 30/80/12
f 33/81/10 34/82/10 36/83/10 35/84/10
f 35/85/7 36/86/7 40/87/7 39/88/7
f 39/89/8 40/90/8 38/91/8 37/92/8
f 37/93/9 38/94/9 34/95/9 33/96/9
f 35/85/11 39/97/11 37/98/11 33/96/11
f 40/99/12 36/86/12 34/95/12 38/100/12
o Cube
v 25.539845 -2.936706 -25.901817
v 25.539845 -2.936706 25.210541
v -25.572515 -2.936706 25.210535
v -25.572502 -2.936706 -25.901827
v 25.539854 -2.512943 -25.901804
v 25.539829 -2.512943 25.210554
v -25.572523 -2.512943 25.210529
v -25.572510 -2.512943 -25.901817
vt -3.7529 -3.7529
vt 4.7529 -3.7529
vt 4.7529 4.7529
vt -3.7529 4.7529
vt -3.7529 -3.7529
vt 4.7529 -3.7529
vt 4.7529 4.7529
vt -3.7529 4.7529
vt 4.7529 -3.7529
vt 4.7529 4.7529
vt -3.7529 4.7529
vt -3.7529 -3.7529
vt 4.7529 -3.7529
vt -3.7529 4.7529
vt -3.7529 -3.7529
vt 4.7529 -3.7529
vt 4.7529 4.7529
vt 4.7529 -3.7529
vt 4.7529 4.7529
vt -3.7529 4.7529
vn 0.0000 -1.0000 0.0000
vn 0.0000 1.0000 0.0000
vn 1.0000 0.0000 0.0000
vn -0.0000 -0.0000 1.0000
vn -1.0000 -0.0000 -0.0000
vn 0.0000 0.0000 -1.0000
usemtl rust-panel
s off
f 41/101/13 42/102/13 43/103/13 44/104/13
f 45/105/14 48/106/14 47/107/14 46/108/14
f 41/101/15 45/109/15 46/110/15 42/111/15
f 42/112/16 46/113/16 47/107/16 43/114/16
f 43/115/17 47/116/17 48/117/17 44/104/17
f 45/105/18 41/118/18 44/119/18 48/120/18
